<?xml version="1.0" encoding="UTF-8"?>
<svg id="Layer_2" data-name="Layer 2" xmlns="http://www.w3.org/2000/svg" viewBox="0 0 220.87 220.87">
  <defs>
    <style>
      .cls-1 {
        stroke: #56a9fa;
      }

      .cls-1, .cls-2 {
        fill: none;
        stroke-linecap: round;
        stroke-linejoin: round;
        stroke-width: 8px;
      }

      .cls-2 {
        stroke: #a1d5ff;
      }
    </style>
  </defs>
  <g id="Layer_1-2" data-name="Layer 1">
    <g id="target_goal" data-name="target/goal">
      <line class="cls-2" x1="100.13" y1="120.73" x2="164.51" y2="56.35"/>
      <polyline class="cls-2" points="164.51 56.35 189.41 52.06 216.87 24.6 196.27 24.6 196.27 4 168.81 31.46 164.51 56.35"/>
      <line class="cls-1" x1="161.16" y1="195.02" x2="179.1" y2="216.86"/>
      <line class="cls-1" x1="21.18" y1="216.85" x2="39.11" y2="195.02"/>
      <path class="cls-1" d="M148.2,37.47c-36.76-21.26-84.58-16.18-116.04,15.28-37.55,37.55-37.55,98.4,0,135.95,37.55,37.55,98.4,37.55,135.95,0,31.46-31.46,36.55-79.27,15.29-116.03"/>
      <path class="cls-1" d="M89.28,107.54c-.43.35-.89.65-1.28,1.05-6.7,6.69-6.7,17.58,0,24.28,6.69,6.7,17.58,6.7,24.27,0,.4-.4.7-.86,1.05-1.29"/>
      <path class="cls-1" d="M113.84,81.92c-14.49-5.11-31.25-1.91-42.84,9.68-16.09,16.09-16.09,42.17,0,58.26,16.09,16.09,42.18,16.09,58.26,0,11.6-11.6,14.8-28.38,9.67-42.88"/>
      <path class="cls-1" d="M131.01,59.38c-25.74-12.97-57.93-8.71-79.43,12.79-26.82,26.82-26.82,70.29,0,97.11,26.82,26.82,70.29,26.82,97.11,0,22.47-22.47,26.11-56.62,10.94-82.88"/>
    </g>
  </g>
</svg>