<?xml version="1.0" encoding="UTF-8"?>
<svg id="Layer_2" data-name="Layer 2" xmlns="http://www.w3.org/2000/svg" viewBox="0 0 209.01 209.01">
  <defs>
    <style>
      .cls-1 {
        stroke: #56a9fa;
      }

      .cls-1, .cls-2 {
        fill: none;
        stroke-linecap: round;
        stroke-linejoin: round;
        stroke-width: 8px;
      }

      .cls-2 {
        stroke: #a1d5ff;
      }
    </style>
  </defs>
  <g id="Layer_1-2" data-name="Layer 1">
    <g id="economic_growth" data-name="economic growth">
      <g>
        <line class="cls-1" x1="75.33" y1="75.33" x2="75.33" y2="114.23"/>
        <line class="cls-1" x1="133.68" y1="75.33" x2="133.68" y2="114.23"/>
        <polyline class="cls-1" points="162.86 205.01 192.04 205.01 192.04 55.87"/>
        <polyline class="cls-1" points="16.97 123.96 16.97 205.01 46.15 205.01"/>
      </g>
      <polyline class="cls-1" points="192.04 33.18 205.01 46.15 205.01 4 162.86 4 175.83 16.97 104.5 81.81 68.84 46.15 4 107.75"/>
      <g>
        <path class="cls-2" d="M123.96,136.92v-6.48c0-5.37-4.35-9.73-9.73-9.73h-19.45c-5.37,0-9.73,4.35-9.73,9.73v6.48"/>
        <path class="cls-2" d="M62.36,162.86c0,7.16,5.81,12.97,12.97,12.97h58.36c7.16,0,12.97-5.81,12.97-12.97v-19.45c0-3.58-2.9-6.48-6.48-6.48h-71.33c-3.58,0-6.48,2.9-6.48,6.48v19.45Z"/>
        <path class="cls-2" d="M65.6,188.8v9.73c0,3.58,2.9,6.48,6.48,6.48h64.84c3.58,0,6.48-2.9,6.48-6.48v-9.73"/>
        <line class="cls-2" x1="104.5" y1="169.35" x2="104.5" y2="182.31"/>
      </g>
    </g>
  </g>
</svg>